RobotoSerifMicro-Super Italic 01.ufo
<glyph name="asterisk" format="2">
  <advance width="659"/>
  <unicode hex="002A"/>
  <guideline x="150" y="539" angle="0" identifier="sHG9QTReIn"/>
  <guideline x="350" y="518" angle="90" identifier="Gcra7QYYjI"/>
  <guideline x="358" y="504" angle="0" identifier="Qh1ziIB3mV"/>
  <outline>
    <contour>
      <point x="338" y="580" type="curve"/>
      <point x="414" y="570" type="line"/>
      <point x="439" y="654"/>
      <point x="488" y="689"/>
      <point x="512" y="802" type="curve"/>
      <point x="354" y="802" type="line"/>
      <point x="330" y="709"/>
      <point x="357" y="664"/>
    </contour>
    <contour>
      <point x="311" y="533" type="curve"/>
      <point x="361" y="591" type="line"/>
      <point x="301" y="644"/>
      <point x="294" y="697"/>
      <point x="220" y="754" type="curve"/>
      <point x="113" y="628" type="line"/>
      <point x="186" y="572"/>
      <point x="242" y="580"/>
    </contour>
    <contour>
      <point x="341" y="490" type="curve"/>
      <point x="320" y="557" type="line"/>
      <point x="233" y="526"/>
      <point x="170" y="543"/>
      <point x="76" y="505" type="curve"/>
      <point x="125" y="364" type="line"/>
      <point x="219" y="403"/>
      <point x="257" y="452"/>
    </contour>
    <contour>
      <point x="398" y="498" type="curve"/>
      <point x="322" y="508" type="line"/>
      <point x="297" y="424"/>
      <point x="248" y="387"/>
      <point x="224" y="276" type="curve"/>
      <point x="382" y="276" type="line"/>
      <point x="406" y="367"/>
      <point x="379" y="414"/>
    </contour>
    <contour>
      <point x="423" y="547" type="curve"/>
      <point x="373" y="489" type="line"/>
      <point x="433" y="436"/>
      <point x="444" y="380"/>
      <point x="516" y="325" type="curve"/>
      <point x="621" y="453" type="line"/>
      <point x="549" y="508"/>
      <point x="492" y="500"/>
    </contour>
    <contour>
      <point x="395" y="587" type="curve"/>
      <point x="416" y="520" type="line"/>
      <point x="503" y="551"/>
      <point x="564" y="543"/>
      <point x="660" y="579" type="curve"/>
      <point x="610" y="717" type="line"/>
      <point x="515" y="679"/>
      <point x="479" y="625"/>
    </contour>
  </outline>
</glyph>
<glyph name="comma" format="2">
  <advance width="455"/>
  <unicode hex="002C"/>
  <guideline x="0" y="213" angle="0" identifier="SnrC9wu8tb"/>
  <guideline x="0" y="-7" angle="0" identifier="EZSt6jeJbx"/>
  <outline>
    <contour>
      <point x="62" y="-236" type="line"/>
      <point x="276" y="-218"/>
      <point x="366" y="-46"/>
      <point x="366" y="90" type="curve" smooth="yes"/>
      <point x="366" y="173"/>
      <point x="313" y="213"/>
      <point x="207" y="213" type="curve" smooth="yes"/>
      <point x="105" y="213"/>
      <point x="57" y="161"/>
      <point x="57" y="88" type="curve" smooth="yes"/>
      <point x="57" y="22"/>
      <point x="113" y="-7"/>
      <point x="182" y="-7" type="curve" smooth="yes"/>
      <point x="216" y="-7"/>
      <point x="250" y="1"/>
      <point x="283" y="14" type="curve"/>
      <point x="264" y="62"/>
      <point x="261" y="98"/>
      <point x="239" y="16" type="curve" smooth="yes"/>
      <point x="210" y="-95"/>
      <point x="146" y="-129"/>
      <point x="-6" y="-141" type="curve"/>
    </contour>
  </outline>
</glyph>
<glyph name="zero" format="2">
  <advance width="560"/>
  <unicode hex="0030"/>
  <guideline x="0" y="693" angle="0" identifier="U8uGb2BYWP"/>
  <guideline x="0" y="598" angle="0" identifier="rp8B8hLlBI"/>
  <guideline x="0" y="-11" angle="0" identifier="x8kNSe72SL"/>
  <guideline x="0" y="84" angle="0" identifier="pQnXfOMCt0"/>
  <outline>
    <contour>
      <point x="550" y="469" type="curve" smooth="yes"/>
      <point x="550.0" y="613.0"/>
      <point x="465" y="693"/>
      <point x="343" y="693" type="curve"/>
      <point x="91" y="693"/>
      <point x="13" y="400"/>
      <point x="13" y="213" type="curve" smooth="yes"/>
      <point x="13" y="69.0"/>
      <point x="99" y="-11"/>
      <point x="220" y="-11" type="curve" smooth="yes"/>
      <point x="472.0" y="-11.0"/>
      <point x="550" y="282"/>
    </contour>
    <contour>
      <point x="227" y="358" type="curve"/>
      <point x="279" y="560"/>
      <point x="302" y="598"/>
      <point x="339" y="598" type="curve" smooth="yes"/>
      <point x="366" y="598.0"/>
      <point x="376.0" y="585.0"/>
      <point x="376" y="552" type="curve" smooth="yes"/>
      <point x="376" y="514"/>
      <point x="367" y="444"/>
      <point x="336" y="324" type="curve"/>
      <point x="284" y="122"/>
      <point x="261" y="84"/>
      <point x="224" y="84" type="curve" smooth="yes"/>
      <point x="197.0" y="84.0"/>
      <point x="187.0" y="97.0"/>
      <point x="187" y="130" type="curve" smooth="yes"/>
      <point x="187" y="168"/>
      <point x="196" y="238"/>
    </contour>
  </outline>
</glyph>
<glyph name="question" format="2">
  <advance width="698"/>
  <unicode hex="003F"/>
  <guideline x="200" y="204" angle="90.0" identifier="qksdPtvnxj"/>
  <guideline x="274" y="191" angle="90.0" identifier="RRabHsMgOI"/>
  <guideline x="120" y="248" angle="0" identifier="6WVYRk9ffb"/>
  <guideline x="0" y="672" angle="0" identifier="y0qvtspRlD"/>
  <guideline x="0" y="762" angle="0" identifier="7K18pgwVVA"/>
  <outline>
    <contour>
      <point x="256" y="446" type="line"/>
      <point x="423.0" y="449.0"/>
      <point x="469" y="526"/>
      <point x="469" y="613" type="curve" smooth="yes"/>
      <point x="469" y="659"/>
      <point x="439" y="672"/>
      <point x="384" y="672" type="curve" smooth="yes"/>
      <point x="333" y="672"/>
      <point x="292" y="649"/>
      <point x="277" y="640" type="curve"/>
      <point x="279" y="656"/>
      <point x="291" y="691"/>
      <point x="337" y="694" type="curve"/>
      <point x="296" y="533" type="line"/>
      <point x="113" y="533" type="line"/>
      <point x="158" y="713" type="line"/>
      <point x="191" y="728"/>
      <point x="300" y="762"/>
      <point x="409" y="762" type="curve" smooth="yes"/>
      <point x="609" y="762"/>
      <point x="701" y="710"/>
      <point x="701" y="609" type="curve"/>
      <point x="701.0" y="452"/>
      <point x="584" y="399"/>
      <point x="410" y="397" type="curve"/>
      <point x="381" y="283" type="line"/>
      <point x="215" y="283" type="line"/>
    </contour>
    <component base="period" xOffset="60" yOffset="-1"/>
  </outline>
</glyph>
<glyph name="K" format="2">
  <advance width="888"/>
  <unicode hex="004B"/>
  <guideline x="330" y="642" angle="90" identifier="wSnEsZQlwI"/>
  <guideline x="0" y="710" angle="0" identifier="OXOwMy6mVX"/>
  <guideline x="0" y="613" angle="0" identifier="OsraFjihxo"/>
  <guideline x="0" y="97" angle="0" identifier="4L59Cc3aFy"/>
  <anchor x="409" y="741" name="top"/>
  <anchor x="409" y="0" name="bottom"/>
  <outline>
    <contour>
      <point x="-44" y="0" type="line"/>
      <point x="295" y="0" type="line"/>
      <point x="320" y="97" type="line"/>
      <point x="313" y="97" type="line" smooth="yes"/>
      <point x="296" y="97"/>
      <point x="276" y="100"/>
      <point x="278" y="107" type="curve"/>
      <point x="402" y="603" type="line"/>
      <point x="404" y="610"/>
      <point x="424" y="613"/>
      <point x="456" y="613" type="curve" smooth="yes"/>
      <point x="469" y="613" type="line"/>
      <point x="494" y="710" type="line"/>
      <point x="134" y="710" type="line"/>
      <point x="109" y="613" type="line"/>
      <point x="120" y="613" type="line" smooth="yes"/>
      <point x="148" y="613"/>
      <point x="168" y="606"/>
      <point x="160" y="577" type="curve" smooth="yes"/>
      <point x="50" y="133" type="line" smooth="yes"/>
      <point x="42" y="104"/>
      <point x="20" y="97"/>
      <point x="-8" y="97" type="curve" smooth="yes"/>
      <point x="-19" y="97" type="line"/>
    </contour>
    <contour>
      <point x="414" y="0" type="line"/>
      <point x="791" y="0" type="line"/>
      <point x="816" y="97" type="line"/>
      <point x="803" y="97" type="line" smooth="yes"/>
      <point x="788" y="97"/>
      <point x="775" y="100"/>
      <point x="765" y="118" type="curve" smooth="yes"/>
      <point x="563" y="481" type="line"/>
      <point x="480" y="351" type="line"/>
      <point x="773" y="584" type="line" smooth="yes"/>
      <point x="802" y="607"/>
      <point x="830" y="613"/>
      <point x="862" y="613" type="curve" smooth="yes"/>
      <point x="879" y="613" type="line"/>
      <point x="904" y="710" type="line"/>
      <point x="597" y="710" type="line"/>
      <point x="572" y="613" type="line"/>
      <point x="591" y="613" type="line" smooth="yes"/>
      <point x="623" y="613"/>
      <point x="668" y="609"/>
      <point x="667" y="602" type="curve"/>
      <point x="369" y="371" type="line"/>
      <point x="364" y="351" type="line"/>
      <point x="496" y="107" type="line"/>
      <point x="494" y="100"/>
      <point x="473" y="97"/>
      <point x="445" y="97" type="curve" smooth="yes"/>
      <point x="439" y="97" type="line"/>
    </contour>
  </outline>
</glyph>
<glyph name="V" format="2">
  <advance width="770"/>
  <unicode hex="0056"/>
  <outline>
    <contour>
      <point x="400" y="61" type="line"/>
      <point x="391" y="602" type="line"/>
      <point x="393" y="609"/>
      <point x="407" y="613"/>
      <point x="451" y="613" type="curve" smooth="yes"/>
      <point x="460" y="613" type="line"/>
      <point x="484" y="710" type="line"/>
      <point x="122" y="710" type="line"/>
      <point x="98" y="613" type="line"/>
      <point x="103" y="613" type="line" smooth="yes"/>
      <point x="135" y="613"/>
      <point x="153" y="599"/>
      <point x="155" y="549" type="curve" smooth="yes"/>
      <point x="173" y="-12" type="line"/>
      <point x="439" y="-12" type="line"/>
      <point x="737" y="549" type="line" smooth="yes"/>
      <point x="763" y="598"/>
      <point x="788" y="613"/>
      <point x="816" y="613" type="curve" smooth="yes"/>
      <point x="822" y="613" type="line"/>
      <point x="846" y="710" type="line"/>
      <point x="620" y="710" type="line"/>
      <point x="596" y="613" type="line"/>
      <point x="604" y="613" type="line" smooth="yes"/>
      <point x="648" y="613"/>
      <point x="659" y="603"/>
      <point x="656" y="590" type="curve"/>
      <point x="376" y="58" type="line"/>
    </contour>
  </outline>
</glyph>
<glyph name="W" format="2">
  <advance width="1119"/>
  <unicode hex="0057"/>
  <anchor x="682" y="741" name="top"/>
  <outline>
    <contour>
      <point x="120" y="710" type="line"/>
      <point x="98" y="623" type="line"/>
      <point x="106" y="623" type="line" smooth="yes"/>
      <point x="132" y="623"/>
      <point x="148" y="619"/>
      <point x="147" y="599" type="curve" smooth="yes"/>
      <point x="122" y="0" type="line"/>
      <point x="372" y="0" type="line"/>
      <point x="640" y="549" type="line"/>
      <point x="621" y="552" type="line"/>
      <point x="596" y="0" type="line"/>
      <point x="834" y="0" type="line"/>
      <point x="1105" y="578" type="line" smooth="yes"/>
      <point x="1119" y="608"/>
      <point x="1137" y="623"/>
      <point x="1165" y="623" type="curve" smooth="yes"/>
      <point x="1173" y="623" type="line"/>
      <point x="1195" y="710" type="line"/>
      <point x="991" y="710" type="line"/>
      <point x="969" y="623" type="line"/>
      <point x="980" y="623" type="line"/>
      <point x="1013" y="623"/>
      <point x="1022" y="613"/>
      <point x="1020" y="604" type="curve"/>
      <point x="797" y="124" type="line"/>
      <point x="823" y="140" type="line"/>
      <point x="848" y="710" type="line"/>
      <point x="623" y="710" type="line"/>
      <point x="354" y="156" type="line"/>
      <point x="360" y="135" type="line"/>
      <point x="391" y="612" type="line"/>
      <point x="393" y="619"/>
      <point x="410" y="623"/>
      <point x="438" y="623" type="curve" smooth="yes"/>
      <point x="448" y="623" type="line"/>
      <point x="470" y="710" type="line"/>
    </contour>
  </outline>
</glyph>
<glyph name="j" format="2">
  <advance width="404"/>
  <unicode hex="006A"/>
  <guideline x="0" y="-147.0" angle="0" identifier="1I2NzvO4Iu"/>
  <guideline x="0" y="-250.0" angle="0" identifier="fXJidDnjeI"/>
  <outline>
    <contour>
      <point x="20" y="-49" type="line" smooth="yes"/>
      <point x="2" y="-120"/>
      <point x="-25" y="-147"/>
      <point x="-81" y="-147" type="curve" smooth="yes"/>
      <point x="-118" y="-147"/>
      <point x="-154" y="-133"/>
      <point x="-175" y="-124" type="curve"/>
      <point x="-200" y="-223" type="line"/>
      <point x="-183" y="-231"/>
      <point x="-129" y="-250"/>
      <point x="-33" y="-250" type="curve" smooth="yes"/>
      <point x="108" y="-250"/>
      <point x="203" y="-199"/>
      <point x="238" y="-60" type="curve" smooth="yes"/>
      <point x="396" y="571" type="line"/>
      <point x="116" y="571" type="line"/>
      <point x="91" y="474" type="line"/>
      <point x="103" y="472" type="line" smooth="yes"/>
      <point x="130" y="467"/>
      <point x="148" y="462"/>
      <point x="144" y="446" type="curve" smooth="yes"/>
    </contour>
    <contour>
      <point x="301" y="611" type="curve" smooth="yes"/>
      <point x="378" y="611"/>
      <point x="423" y="644"/>
      <point x="423" y="714" type="curve" smooth="yes"/>
      <point x="423" y="783"/>
      <point x="378" y="817"/>
      <point x="301" y="817" type="curve" smooth="yes"/>
      <point x="223" y="817"/>
      <point x="178" y="783"/>
      <point x="178" y="714" type="curve" smooth="yes"/>
      <point x="178" y="643"/>
      <point x="223" y="611"/>
    </contour>
  </outline>
</glyph>
<glyph name="w" format="2">
  <advance width="1061"/>
  <unicode hex="0077"/>
  <anchor x="479" y="551" name="top"/>
  <outline>
    <contour>
      <point x="542" y="571" type="line"/>
      <point x="334" y="115" type="line"/>
      <point x="350" y="48" type="line"/>
      <point x="330" y="571" type="line"/>
      <point x="83" y="571" type="line"/>
      <point x="60" y="479" type="line"/>
      <point x="71" y="477" type="line" smooth="yes"/>
      <point x="100" y="472"/>
      <point x="112" y="465"/>
      <point x="113" y="455" type="curve" smooth="yes"/>
      <point x="138" y="-13" type="line"/>
      <point x="359" y="-13" type="line"/>
      <point x="582" y="444" type="line"/>
      <point x="534" y="465" type="line"/>
      <point x="551" y="-13" type="line"/>
      <point x="772" y="-13" type="line"/>
      <point x="1100" y="564" type="line"/>
      <point x="1100" y="571" type="line"/>
      <point x="954" y="571" type="line"/>
      <point x="752" y="112" type="line"/>
      <point x="763" y="48" type="line"/>
      <point x="741" y="571" type="line"/>
    </contour>
  </outline>
</glyph>
<glyph name="x" format="2">
  <advance width="635"/>
  <unicode hex="0078"/>
  <guideline x="15" y="167" angle="90.0" identifier="n2kwGJY8Do"/>
  <guideline x="588" y="236" angle="90.0" identifier="hm1YTw6OQN"/>
  <guideline x="747" y="430" angle="90" identifier="HdLXqR8qC1"/>
  <outline>
    <contour>
      <point x="412" y="270" type="line"/>
      <point x="668" y="560" type="line"/>
      <point x="668" y="571" type="line"/>
      <point x="506" y="571" type="line"/>
      <point x="361" y="323" type="line"/>
    </contour>
    <contour>
      <point x="218" y="295" type="line"/>
      <point x="-38" y="11" type="line"/>
      <point x="-38" y="0" type="line"/>
      <point x="124" y="0" type="line"/>
      <point x="269" y="242" type="line"/>
    </contour>
    <contour>
      <point x="278" y="72" type="line" smooth="yes"/>
      <point x="299" y="16"/>
      <point x="319" y="0"/>
      <point x="377" y="0" type="curve" smooth="yes"/>
      <point x="555" y="0" type="line"/>
      <point x="581" y="113" type="line"/>
      <point x="531" y="113" type="line" smooth="yes"/>
      <point x="508" y="113"/>
      <point x="499" y="119"/>
      <point x="492" y="138" type="curve" smooth="yes"/>
      <point x="325" y="571" type="line"/>
      <point x="94" y="571" type="line"/>
      <point x="71" y="479" type="line"/>
      <point x="83" y="477" type="line" smooth="yes"/>
      <point x="112" y="472"/>
      <point x="128" y="467"/>
      <point x="134" y="450" type="curve" smooth="yes"/>
    </contour>
  </outline>
</glyph>
<glyph name="z" format="2">
  <advance width="660"/>
  <unicode hex="007A"/>
  <guideline x="-68" y="43" angle="90" identifier="SHfiev6Imj"/>
  <anchor x="299" y="551" name="top"/>
  <anchor x="321" y="0" name="bottom"/>
  <outline>
    <contour>
      <point x="432" y="-12" type="curve"/>
      <point x="568" y="-12"/>
      <point x="634" y="100"/>
      <point x="621" y="277" type="curve"/>
      <point x="543" y="288" type="line"/>
      <point x="515" y="202"/>
      <point x="490" y="180"/>
      <point x="415" y="180" type="curve" smooth="yes"/>
      <point x="321" y="180"/>
      <point x="299" y="198"/>
      <point x="276" y="210" type="curve"/>
      <point x="275" y="207"/>
      <point x="207" y="193"/>
      <point x="239" y="161" type="curve"/>
      <point x="279" y="72"/>
      <point x="310" y="-12"/>
    </contour>
    <contour>
      <point x="96" y="0" type="line"/>
      <point x="606" y="434" type="line"/>
      <point x="640" y="571" type="line"/>
      <point x="107" y="571" type="line"/>
      <point x="40" y="306" type="line"/>
      <point x="131" y="306" type="line"/>
      <point x="150" y="348" type="line" smooth="yes"/>
      <point x="167" y="385"/>
      <point x="199" y="396"/>
      <point x="281" y="396" type="curve" smooth="yes"/>
      <point x="476" y="396" type="line"/>
      <point x="468" y="444" type="line"/>
      <point x="-1" y="59" type="line"/>
      <point x="-14" y="0" type="line"/>
    </contour>
  </outline>
</glyph>
<glyph name="oslash" format="2">
  <advance width="708"/>
  <unicode hex="00F8"/>
  <outline>
    <contour>
      <point x="-67" y="-15" type="line"/>
      <point x="63" y="-15" type="line"/>
      <point x="781" y="583" type="line"/>
      <point x="651" y="583" type="line"/>
    </contour>
    <contour>
      <point x="392" y="583" type="curve"/>
      <point x="110" y="583"/>
      <point x="34" y="381"/>
      <point x="34" y="225" type="curve" smooth="yes"/>
      <point x="34" y="85.0"/>
      <point x="148" y="-15"/>
      <point x="316" y="-15" type="curve"/>
      <point x="598" y="-15"/>
      <point x="674" y="187"/>
      <point x="674" y="343" type="curve" smooth="yes"/>
      <point x="674.0" y="483.0"/>
      <point x="560" y="583"/>
    </contour>
    <contour>
      <point x="387" y="481" type="curve" smooth="yes"/>
      <point x="454" y="481"/>
      <point x="469" y="451"/>
      <point x="469" y="412" type="curve" smooth="yes"/>
      <point x="469" y="349"/>
      <point x="462" y="311"/>
      <point x="445" y="249" type="curve" smooth="yes"/>
      <point x="422" y="163"/>
      <point x="400" y="87"/>
      <point x="321" y="87" type="curve" smooth="yes"/>
      <point x="254" y="87"/>
      <point x="239" y="117"/>
      <point x="239" y="156" type="curve" smooth="yes"/>
      <point x="239" y="219"/>
      <point x="246" y="257"/>
      <point x="263" y="319" type="curve" smooth="yes"/>
      <point x="286" y="405"/>
      <point x="308" y="481"/>
    </contour>
  </outline>
</glyph>
<glyph name="schwa" format="2">
  <advance width="659"/>
  <unicode hex="0259"/>
  <outline>
    <contour>
      <point x="305" y="469" type="curve"/>
      <point x="383" y="469"/>
      <point x="411" y="437"/>
      <point x="411" y="337" type="curve" smooth="yes"/>
      <point x="411" y="201"/>
      <point x="361" y="87"/>
      <point x="268" y="87" type="curve" smooth="yes"/>
      <point x="228" y="87"/>
      <point x="213" y="109"/>
      <point x="213" y="150" type="curve" smooth="yes"/>
      <point x="213" y="248"/>
      <point x="305" y="267"/>
      <point x="462" y="272" type="curve"/>
      <point x="457" y="352" type="line"/>
      <point x="194" y="345"/>
      <point x="24" y="290"/>
      <point x="24" y="140" type="curve" smooth="yes"/>
      <point x="24" y="57"/>
      <point x="91" y="-15"/>
      <point x="246" y="-15" type="curve" smooth="yes"/>
      <point x="482" y="-15"/>
      <point x="625" y="148"/>
      <point x="625" y="354" type="curve" smooth="yes"/>
      <point x="625" y="497"/>
      <point x="523" y="583"/>
      <point x="351" y="583" type="curve" smooth="yes"/>
      <point x="211" y="583"/>
      <point x="117" y="523"/>
      <point x="55" y="431" type="curve"/>
      <point x="133" y="367" type="line"/>
      <point x="168" y="414"/>
      <point x="231" y="469"/>
    </contour>
  </outline>
</glyph>
<glyph name="Delta" format="2">
  <advance width="757"/>
  <unicode hex="0394"/>
  <outline>
    <contour>
      <point x="-34" y="0" type="line"/>
      <point x="643" y="0" type="line"/>
      <point x="685" y="167" type="line"/>
      <point x="567" y="710" type="line"/>
      <point x="398" y="710" type="line"/>
      <point x="8" y="167" type="line"/>
    </contour>
    <contour>
      <point x="476" y="118" type="line"/>
      <point x="625" y="172" type="line"/>
      <point x="40" y="172" type="line"/>
      <point x="78" y="111" type="line"/>
      <point x="479" y="673" type="line"/>
      <point x="382" y="617" type="line"/>
    </contour>
  </outline>
</glyph>
<glyph name="quoteright" format="2">
  <advance width="367"/>
  <unicode hex="2019"/>
  <guideline x="0" y="606" angle="0" identifier="gdcRHxkrE1"/>
  <outline>
    <contour>
      <point x="117" y="386" type="line"/>
      <point x="316" y="414"/>
      <point x="395" y="550"/>
      <point x="395" y="670" type="curve" smooth="yes"/>
      <point x="395" y="751"/>
      <point x="354.0" y="790.0"/>
      <point x="264" y="790" type="curve" smooth="yes"/>
      <point x="185" y="790"/>
      <point x="141" y="749"/>
      <point x="141" y="685" type="curve" smooth="yes"/>
      <point x="141.0" y="636.0"/>
      <point x="182.0" y="606.0"/>
      <point x="241" y="606" type="curve" smooth="yes"/>
      <point x="259" y="606"/>
      <point x="279" y="609"/>
      <point x="297" y="618" type="curve"/>
      <point x="290" y="627"/>
      <point x="282.0" y="629.0"/>
      <point x="276" y="631" type="curve"/>
      <point x="247" y="521"/>
      <point x="181" y="503"/>
      <point x="73" y="482" type="curve"/>
    </contour>
  </outline>
</glyph>
<glyph name="AE.alt" format="2">
  <advance width="1146"/>
  <outline>
    <contour>
      <point x="656" y="324" type="line"/>
      <point x="821" y="324" type="line" smooth="yes"/>
      <point x="850" y="324"/>
      <point x="854" y="299"/>
      <point x="848" y="275" type="curve" smooth="yes"/>
      <point x="844" y="259" type="line"/>
      <point x="936" y="259" type="line"/>
      <point x="990" y="477" type="line"/>
      <point x="898" y="477" type="line"/>
      <point x="895" y="464" type="line" smooth="yes"/>
      <point x="889" y="439"/>
      <point x="873" y="414"/>
      <point x="844" y="414" type="curve" smooth="yes"/>
      <point x="679" y="414" type="line"/>
    </contour>
    <contour>
      <point x="527" y="290" type="line"/>
      <point x="222" y="290" type="line"/>
      <point x="197" y="209" type="line"/>
      <point x="515" y="209" type="line"/>
    </contour>
    <contour>
      <point x="372" y="0" type="line"/>
      <point x="1013" y="0" type="line"/>
      <point x="1066" y="224" type="line"/>
      <point x="957" y="224" type="line"/>
      <point x="919" y="140" type="line" smooth="yes"/>
      <point x="903" y="104"/>
      <point x="874" y="95"/>
      <point x="797" y="95" type="curve"/>
      <point x="691" y="95" type="line"/>
      <point x="821" y="615" type="line"/>
      <point x="938" y="615" type="line" smooth="yes"/>
      <point x="993" y="615"/>
      <point x="1022" y="606"/>
      <point x="1020" y="570" type="curve" smooth="yes"/>
      <point x="1017" y="511" type="line"/>
      <point x="1124" y="511" type="line"/>
      <point x="1167" y="710" type="line"/>
      <point x="380" y="710" type="line"/>
      <point x="355" y="613" type="line"/>
      <point x="363" y="613" type="line" smooth="yes"/>
      <point x="391" y="613"/>
      <point x="417" y="606"/>
      <point x="409" y="577" type="curve"/>
      <point x="72" y="161" type="line" smooth="yes"/>
      <point x="33" y="113"/>
      <point x="11" y="97"/>
      <point x="-17" y="97" type="curve" smooth="yes"/>
      <point x="-23" y="97" type="line"/>
      <point x="-48" y="0" type="line"/>
      <point x="191" y="0" type="line"/>
      <point x="216" y="97" type="line"/>
      <point x="208" y="97" type="line" smooth="yes"/>
      <point x="164" y="97"/>
      <point x="154" y="107"/>
      <point x="157" y="120" type="curve"/>
      <point x="556" y="615" type="line"/>
      <point x="586" y="615" type="line"/>
      <point x="466" y="133" type="line" smooth="yes"/>
      <point x="459" y="104"/>
      <point x="436" y="97"/>
      <point x="408" y="97" type="curve" smooth="yes"/>
      <point x="397" y="97" type="line"/>
    </contour>
  </outline>
</glyph>
<glyph name="bracketleft.uc" format="2">
  <advance width="415"/>
  <guideline x="0" y="-80" angle="0" identifier="WXCvU1f6kp"/>
  <outline>
    <contour>
      <point x="-34" y="-80" type="line"/>
      <point x="139" y="-80" type="line"/>
      <point x="346" y="750" type="line"/>
      <point x="173" y="750" type="line"/>
    </contour>
    <contour>
      <point x="188" y="650" type="line"/>
      <point x="463" y="650" type="line"/>
      <point x="488" y="750" type="line"/>
      <point x="213" y="750" type="line"/>
    </contour>
    <contour>
      <point x="6" y="-80" type="line"/>
      <point x="291" y="-80" type="line"/>
      <point x="316" y="20" type="line"/>
      <point x="31" y="20" type="line"/>
    </contour>
  </outline>
</glyph>
<glyph name="five.linprop" format="2">
  <advance width="590"/>
  <outline>
    <contour>
      <point x="56" y="-27"/>
      <point x="-10" y="35"/>
      <point x="-34" y="144" type="curve"/>
      <point x="82" y="178" type="line"/>
      <point x="98" y="122"/>
      <point x="115" y="74"/>
      <point x="203" y="74" type="curve" smooth="yes"/>
      <point x="306" y="74"/>
      <point x="327" y="188"/>
      <point x="327" y="272" type="curve" smooth="yes"/>
      <point x="327" y="331"/>
      <point x="306" y="357"/>
      <point x="248" y="357" type="curve"/>
      <point x="199" y="357"/>
      <point x="172" y="334"/>
      <point x="140" y="287" type="curve"/>
      <point x="53" y="287" type="line"/>
      <point x="159" y="710" type="line"/>
      <point x="581" y="710" type="line"/>
      <point x="528" y="555" type="line"/>
      <point x="199" y="555" type="line"/>
      <point x="254" y="690" type="line"/>
      <point x="172" y="361" type="line"/>
      <point x="174" y="340"/>
      <point x="157" y="336"/>
      <point x="147" y="342" type="curve"/>
      <point x="183" y="409"/>
      <point x="235" y="457"/>
      <point x="334" y="457" type="curve" smooth="yes"/>
      <point x="454" y="457"/>
      <point x="536" y="395"/>
      <point x="536" y="264" type="curve" smooth="yes"/>
      <point x="536" y="89"/>
      <point x="434" y="-27"/>
      <point x="214" y="-27" type="curve" smooth="yes"/>
    </contour>
  </outline>
</glyph>
<glyph name="five.prop" format="2">
  <advance width="576"/>
  <outline>
    <contour>
      <point x="266" y="-90" type="curve" smooth="yes"/>
      <point x="121" y="-90"/>
      <point x="65" y="-39"/>
      <point x="29" y="75" type="curve"/>
      <point x="118" y="133" type="line"/>
      <point x="138" y="60"/>
      <point x="158" y="11"/>
      <point x="237" y="11" type="curve" smooth="yes"/>
      <point x="301" y="11"/>
      <point x="326" y="46"/>
      <point x="326" y="164" type="curve" smooth="yes"/>
      <point x="326" y="258"/>
      <point x="306" y="286"/>
      <point x="248" y="286" type="curve" smooth="yes"/>
      <point x="198" y="286"/>
      <point x="184" y="258"/>
      <point x="167" y="211" type="curve"/>
      <point x="83" y="211" type="line"/>
      <point x="83" y="639" type="line"/>
      <point x="480" y="639" type="line"/>
      <point x="463" y="489" type="line"/>
      <point x="159" y="489" type="line"/>
      <point x="176" y="619" type="line"/>
      <point x="176" y="292" type="line"/>
      <point x="171" y="278"/>
      <point x="157" y="273"/>
      <point x="159" y="273" type="curve"/>
      <point x="181" y="340"/>
      <point x="215" y="386"/>
      <point x="328" y="386" type="curve" smooth="yes"/>
      <point x="456" y="386"/>
      <point x="526" y="314"/>
      <point x="526" y="164" type="curve" smooth="yes"/>
      <point x="526" y="-11"/>
      <point x="440" y="-90"/>
    </contour>
  </outline>
</glyph>
<glyph name="g.alt" format="2">
  <advance width="783"/>
  <guideline x="0" y="582" angle="0" identifier="He0naFE0RG"/>
  <guideline x="0" y="497" angle="0" identifier="GG9Vejd7jP"/>
  <guideline x="0" y="192" angle="0" identifier="lsbanGF9zb"/>
  <guideline x="0" y="272" angle="0" identifier="o0LQU7MBgD"/>
  <guideline x="0" y="117" angle="0" identifier="7wgGI78Tx1"/>
  <guideline x="0" y="-68" angle="0" identifier="1R6hweVOBr"/>
  <guideline x="0" y="-174" angle="0" identifier="7cwogarOw9"/>
  <guideline x="0" y="-256" angle="0" identifier="alIgHXbUDW"/>
  <anchor x="333" y="545.0" name="top"/>
  <outline>
    <contour>
      <point x="805" y="452" type="curve"/>
      <point x="846" y="619" type="line"/>
      <point x="728" y="631"/>
      <point x="673" y="573"/>
      <point x="606" y="469" type="curve"/>
      <point x="637" y="491" type="line"/>
      <point x="701" y="478"/>
      <point x="731" y="473"/>
    </contour>
    <contour>
      <point x="350" y="196" type="curve" smooth="yes"/>
      <point x="373" y="193"/>
      <point x="396" y="192"/>
      <point x="417" y="192" type="curve" smooth="yes"/>
      <point x="556" y="192"/>
      <point x="655" y="250"/>
      <point x="681" y="352" type="curve" smooth="yes"/>
      <point x="685" y="369"/>
      <point x="687" y="385"/>
      <point x="687" y="400" type="curve" smooth="yes"/>
      <point x="687.0" y="517"/>
      <point x="570" y="582"/>
      <point x="417" y="582" type="curve" smooth="yes"/>
      <point x="245" y="582"/>
      <point x="157" y="521"/>
      <point x="131" y="418" type="curve" smooth="yes"/>
      <point x="127" y="401"/>
      <point x="125" y="385"/>
      <point x="125" y="369" type="curve" smooth="yes"/>
      <point x="125" y="278"/>
      <point x="200" y="215"/>
    </contour>
    <contour>
      <point x="372" y="274" type="curve" smooth="yes"/>
      <point x="334" y="279"/>
      <point x="319" y="293"/>
      <point x="319" y="325" type="curve" smooth="yes"/>
      <point x="319" y="343"/>
      <point x="324" y="365"/>
      <point x="331" y="394" type="curve" smooth="yes"/>
      <point x="350" y="469"/>
      <point x="373" y="497"/>
      <point x="419" y="497" type="curve" smooth="yes"/>
      <point x="463.7842263841399" y="497.0"/>
      <point x="491.0" y="479.9504661533874"/>
      <point x="491" y="443" type="curve" smooth="yes"/>
      <point x="491" y="425"/>
      <point x="486" y="402"/>
      <point x="479" y="372" type="curve" smooth="yes"/>
      <point x="461" y="300"/>
      <point x="439" y="273"/>
      <point x="392" y="273" type="curve" smooth="yes"/>
      <point x="386" y="273"/>
      <point x="379" y="273"/>
    </contour>
    <contour>
      <point x="76" y="-256" type="curve" smooth="yes"/>
      <point x="372" y="-256" type="line"/>
      <point x="523" y="-256"/>
      <point x="628" y="-227"/>
      <point x="663" y="-90" type="curve" smooth="yes"/>
      <point x="667" y="-73"/>
      <point x="670" y="-56"/>
      <point x="670" y="-39" type="curve" smooth="yes"/>
      <point x="670" y="46"/>
      <point x="613" y="117"/>
      <point x="504" y="117" type="curve" smooth="yes"/>
      <point x="229" y="117" type="line" smooth="yes"/>
      <point x="203" y="117"/>
      <point x="192" y="120"/>
      <point x="192" y="134" type="curve" smooth="yes"/>
      <point x="192" y="138"/>
      <point x="193" y="142"/>
      <point x="194" y="147" type="curve" smooth="yes"/>
      <point x="201" y="171"/>
      <point x="217" y="205"/>
      <point x="274" y="231" type="curve"/>
      <point x="231" y="251" type="line"/>
      <point x="120" y="230"/>
      <point x="41" y="190"/>
      <point x="21" y="112" type="curve" smooth="yes"/>
      <point x="17" y="98"/>
      <point x="16" y="85"/>
      <point x="16" y="71" type="curve" smooth="yes"/>
      <point x="16" y="14"/>
      <point x="48" y="-39"/>
      <point x="105" y="-54" type="curve"/>
      <point x="103" y="-63"/>
      <point x="93" y="-52"/>
      <point x="66" y="-68" type="curve"/>
      <point x="436" y="-68" type="line"/>
      <point x="457" y="-68"/>
      <point x="467" y="-94"/>
      <point x="467" y="-115" type="curve" smooth="yes"/>
      <point x="467" y="-119"/>
      <point x="467" y="-123"/>
      <point x="466" y="-127" type="curve" smooth="yes"/>
      <point x="454" y="-173"/>
      <point x="443" y="-174"/>
      <point x="369" y="-174" type="curve" smooth="yes"/>
      <point x="153" y="-174" type="line" smooth="yes"/>
      <point x="112" y="-174"/>
      <point x="95" y="-150"/>
      <point x="95" y="-125" type="curve" smooth="yes"/>
      <point x="95" y="-120"/>
      <point x="96" y="-116"/>
      <point x="97" y="-111" type="curve" smooth="yes"/>
      <point x="106" y="-76"/>
      <point x="115" y="-69"/>
      <point x="163" y="-49" type="curve"/>
      <point x="140" y="-29" type="line"/>
      <point x="2" y="-37"/>
      <point x="-54" y="-60"/>
      <point x="-71" y="-126" type="curve" smooth="yes"/>
      <point x="-74" y="-137"/>
      <point x="-75" y="-148"/>
      <point x="-75" y="-159" type="curve" smooth="yes"/>
      <point x="-75" y="-214"/>
      <point x="-33" y="-256"/>
    </contour>
  </outline>
</glyph>
<glyph name="nine.oldprop" format="2">
  <advance width="632"/>
  <outline>
    <contour>
      <point x="-4" y="-11" type="line"/>
      <point x="344" y="0"/>
      <point x="418" y="300"/>
      <point x="418" y="478" type="curve" smooth="yes"/>
      <point x="418" y="540"/>
      <point x="403" y="559"/>
      <point x="351" y="559" type="curve" smooth="yes"/>
      <point x="259" y="559"/>
      <point x="236" y="387"/>
      <point x="236" y="326" type="curve" smooth="yes"/>
      <point x="236" y="286"/>
      <point x="248" y="265"/>
      <point x="293" y="265" type="curve" smooth="yes"/>
      <point x="332" y="265"/>
      <point x="363" y="286"/>
      <point x="419" y="355" type="curve"/>
      <point x="421" y="318" type="line"/>
      <point x="364" y="239"/>
      <point x="313" y="175"/>
      <point x="209" y="175" type="curve" smooth="yes"/>
      <point x="100" y="175"/>
      <point x="35" y="238"/>
      <point x="35" y="337" type="curve" smooth="yes"/>
      <point x="35" y="509"/>
      <point x="129" y="649"/>
      <point x="361" y="649" type="curve" smooth="yes"/>
      <point x="524" y="649"/>
      <point x="614" y="568"/>
      <point x="614" y="435" type="curve" smooth="yes"/>
      <point x="614" y="171"/>
      <point x="439" y="-92"/>
      <point x="-1" y="-111" type="curve"/>
    </contour>
  </outline>
</glyph>
<glyph name="one.prop" format="2">
  <advance width="576"/>
  <outline>
    <contour>
      <point x="423" y="128" type="curve" smooth="yes"/>
      <point x="423" y="639" type="line"/>
      <point x="246" y="639" type="line"/>
      <point x="212" y="591"/>
      <point x="164" y="563"/>
      <point x="47" y="562" type="curve"/>
      <point x="47" y="433" type="line"/>
      <point x="147" y="432"/>
      <point x="207" y="456"/>
      <point x="233" y="566" type="curve"/>
      <point x="224" y="558"/>
      <point x="227" y="546"/>
      <point x="213" y="559" type="curve"/>
      <point x="213" y="128" type="line" smooth="yes"/>
      <point x="213" y="89"/>
      <point x="165" y="82"/>
      <point x="105" y="82" type="curve" smooth="yes"/>
      <point x="70" y="82" type="line"/>
      <point x="70" y="0" type="line"/>
      <point x="547" y="0" type="line"/>
      <point x="547" y="82" type="line"/>
      <point x="527" y="82" type="line" smooth="yes"/>
      <point x="467" y="82"/>
      <point x="423" y="89"/>
    </contour>
  </outline>
</glyph>
<glyph name="seven.prop" format="2">
  <advance width="576"/>
  <outline>
    <contour>
      <point x="235" y="484" type="line" smooth="yes"/>
      <point x="170" y="484"/>
      <point x="144" y="477"/>
      <point x="141" y="441" type="curve" smooth="yes"/>
      <point x="134" y="344" type="line"/>
      <point x="50" y="344" type="line"/>
      <point x="50" y="639" type="line"/>
      <point x="533" y="639" type="line"/>
      <point x="533" y="475" type="line"/>
      <point x="420" y="354"/>
      <point x="355" y="248"/>
      <point x="351" y="-77" type="curve"/>
      <point x="150" y="-77" type="line"/>
      <point x="166" y="231"/>
      <point x="372" y="434"/>
      <point x="470" y="501" type="curve"/>
      <point x="489" y="484" type="line"/>
    </contour>
  </outline>
</glyph>
<glyph name="six.oldprop" format="2">
  <advance width="632"/>
  <outline>
    <contour>
      <point x="635" y="650" type="line"/>
      <point x="287" y="639"/>
      <point x="213" y="339"/>
      <point x="213" y="161" type="curve" smooth="yes"/>
      <point x="213" y="99"/>
      <point x="228" y="80"/>
      <point x="280" y="80" type="curve"/>
      <point x="372" y="80"/>
      <point x="400" y="257"/>
      <point x="400" y="320" type="curve" smooth="yes"/>
      <point x="400" y="361"/>
      <point x="388" y="383"/>
      <point x="343" y="383" type="curve" smooth="yes"/>
      <point x="304" y="383"/>
      <point x="273" y="362"/>
      <point x="217" y="293" type="curve"/>
      <point x="215" y="330" type="line"/>
      <point x="272" y="409"/>
      <point x="323" y="473"/>
      <point x="427" y="473" type="curve" smooth="yes"/>
      <point x="536" y="473"/>
      <point x="601" y="409"/>
      <point x="601" y="308" type="curve" smooth="yes"/>
      <point x="601" y="133"/>
      <point x="502" y="-10"/>
      <point x="270" y="-10" type="curve" smooth="yes"/>
      <point x="107" y="-10"/>
      <point x="17" y="71"/>
      <point x="17" y="204" type="curve" smooth="yes"/>
      <point x="17" y="468"/>
      <point x="192" y="731"/>
      <point x="632" y="750" type="curve"/>
    </contour>
  </outline>
</glyph>
<glyph name="three.lin" format="2">
  <advance width="560"/>
  <guideline x="0" y="645" angle="0" identifier="1XTALIlqe2"/>
  <guideline x="0" y="735" angle="0" identifier="cRw3vWuSfy"/>
  <guideline x="0" y="323" angle="0" identifier="S54QQB7Oq9"/>
  <guideline x="0" y="422" angle="0" identifier="b94saSktxo"/>
  <guideline x="0" y="85" angle="0" identifier="914EVbRkvR"/>
  <guideline x="0" y="-10" angle="0" identifier="tHIjx4gqOM"/>
  <outline>
    <contour>
      <point x="85" y="156"/>
      <point x="105" y="85"/>
      <point x="192" y="85" type="curve" smooth="yes"/>
      <point x="273.0" y="85.0"/>
      <point x="300.0" y="162.0"/>
      <point x="300" y="259" type="curve" smooth="yes"/>
      <point x="300" y="300"/>
      <point x="279" y="323"/>
      <point x="213" y="323" type="curve" smooth="yes"/>
      <point x="122" y="323" type="line"/>
      <point x="147" y="422" type="line"/>
      <point x="246" y="422" type="line" smooth="yes"/>
      <point x="343.0" y="422.0"/>
      <point x="377" y="507"/>
      <point x="377" y="585" type="curve" smooth="yes"/>
      <point x="377" y="624"/>
      <point x="355.0" y="645.0"/>
      <point x="310" y="645" type="curve" smooth="yes"/>
      <point x="267" y="645"/>
      <point x="238" y="630"/>
      <point x="226" y="623" type="curve"/>
      <point x="220" y="640.0"/>
      <point x="233.42857142857142" y="658.5714285714286"/>
      <point x="265" y="661" type="curve"/>
      <point x="231" y="524" type="line"/>
      <point x="86" y="524" type="line"/>
      <point x="128" y="691" type="line"/>
      <point x="173" y="712"/>
      <point x="247" y="735"/>
      <point x="327" y="735" type="curve" smooth="yes"/>
      <point x="490" y="735"/>
      <point x="564" y="678"/>
      <point x="564" y="569" type="curve" smooth="yes"/>
      <point x="564.0" y="438.0"/>
      <point x="463" y="385"/>
      <point x="309" y="379" type="curve"/>
      <point x="347" y="391" type="line"/>
      <point x="338" y="353" type="line"/>
      <point x="308" y="376" type="line"/>
      <point x="438" y="358"/>
      <point x="500" y="305"/>
      <point x="500" y="211" type="curve" smooth="yes"/>
      <point x="500" y="74"/>
      <point x="401" y="-10"/>
      <point x="213" y="-10" type="curve" smooth="yes"/>
      <point x="26" y="-10"/>
      <point x="-13" y="81"/>
      <point x="-33" y="167" type="curve"/>
      <point x="72" y="201" type="line"/>
    </contour>
  </outline>
</glyph>
<glyph name="three.old" format="2">
  <advance width="560"/>
  <guideline x="0" y="-90" angle="0" identifier="ofc3o9qIX8"/>
  <outline>
    <contour>
      <point x="357" y="491" type="curve" smooth="yes"/>
      <point x="357" y="545"/>
      <point x="335" y="559"/>
      <point x="284" y="559" type="curve" smooth="yes"/>
      <point x="253" y="559"/>
      <point x="221" y="552"/>
      <point x="199" y="545" type="curve"/>
      <point x="203" y="562"/>
      <point x="218" y="571"/>
      <point x="250" y="575" type="curve"/>
      <point x="216" y="438" type="line"/>
      <point x="71" y="438" type="line"/>
      <point x="114" y="615" type="line"/>
      <point x="158" y="631"/>
      <point x="223" y="649"/>
      <point x="313" y="649" type="curve" smooth="yes"/>
      <point x="468" y="649"/>
      <point x="547" y="597"/>
      <point x="547" y="489" type="curve" smooth="yes"/>
      <point x="547" y="358"/>
      <point x="457" y="298"/>
      <point x="293" y="292" type="curve"/>
      <point x="331" y="304" type="line"/>
      <point x="322" y="266" type="line"/>
      <point x="292" y="290" type="line"/>
      <point x="427" y="276"/>
      <point x="491" y="223"/>
      <point x="491" y="125" type="curve" smooth="yes"/>
      <point x="491" y="-10"/>
      <point x="400" y="-90"/>
      <point x="198" y="-90" type="curve" smooth="yes"/>
      <point x="41" y="-90"/>
      <point x="-10" y="-17"/>
      <point x="-39" y="77" type="curve"/>
      <point x="71" y="118" type="line"/>
      <point x="89" y="59"/>
      <point x="112" y="5"/>
      <point x="189" y="5" type="curve" smooth="yes"/>
      <point x="273" y="5"/>
      <point x="291" y="86"/>
      <point x="291" y="164" type="curve" smooth="yes"/>
      <point x="291" y="210"/>
      <point x="269" y="240"/>
      <point x="200" y="240" type="curve" smooth="yes"/>
      <point x="109" y="240" type="line"/>
      <point x="134" y="339" type="line"/>
      <point x="233" y="339" type="line" smooth="yes"/>
      <point x="324" y="339"/>
      <point x="357" y="416"/>
    </contour>
  </outline>
</glyph>
